{"title":"War of the Arrows BRRIP HD - &quot;Abhi","uid":7845433,"size":2254406109,"categoryP":"video","categoryS":"hd___movies","magnet":"?xt=urn:btih:8d4de2f38093d9496ed5496b972ee82f6504b238&amp;dn=War+of+the+Arrows+BRRIP+HD+-+%26quot%3BAbhi&amp;tr=udp%3A%2F%2Ftracker.openbittorrent.com%3A80&amp;tr=udp%3A%2F%2Fopen.demonii.com%3A1337&amp;tr=udp%3A%2F%2Ftracker.coppersurfer.tk%3A6969&amp;tr=udp%3A%2F%2Fexodus.desync.com%3A6969","seeders":1,"leechers":0,"uploader":"drabhi90","files":3,"time":1353459106,"description":"General\nFormat                                   : AVI\nFormat/Info                              : Audio Video Interleave\nFile size                                : 2.10GB\nOverall bit rate                         : 2 594 Kbps\nWriting application                      : VirtualDubMod 1.5.10.3 | www.virtualdub-fr.org || (build 2550/release)\nWriting library                          : VirtualDubMod build 2550/release\n\nVideo\nID                                       : 0\nFormat                                   : MPEG-4 Visual\nFormat profile                           : Advanced Simple@L5\nFormat settings, BVOP                    : 2\nFormat settings, QPel                    : No\nFormat settings, GMC                     : No warppoints\nFormat settings, Matrix                  : Default (H.263)\nCodec ID                                 : XVID\nCodec ID/Hint                            : XviD\nBit rate                                 : 2 136 Kbps\nWidth                                    : 720 pixels\nHeight                                   : 304 pixels\nDisplay aspect ratio                     : 2.35:1\nFrame rate                               : 23.976 fps\nColor space                              : YUV\nChroma subsampling                       : 4:2:0\nBit depth                                : 8 bits\nScan type                                : Progressive\nCompression mode                         : Lossy\nBits/(Pixel*Frame)                       : 0.407\nStream size                              : 15.8 MiB (82%)\nWriting library                          : XviD 1.2.1 (UTC 2008-12-04)\n\nAudio\nID                                       : 1\nFormat                                   : AC-3\nFormat/Info                              : Audio Coding 3\nMode extension                           : CM (complete main)\nFormat settings, Endianness              : Big\nCodec ID                                 : 2000\nBit rate mode                            : Constant\nBit rate                                 : 448 Kbps\nChannel(s)                               : 6 channels\nChannel positions                        : Front: L C R, Side: L R, LFE\nSampling rate                            : 48.0 KHz\nBit depth                                : 16 bits\nCompression mode                         : Lossy\nDelay relative to video                  : 13ms\nStream size                              : 3.32 MiB (17%)\nAlignment                                : Split accross interleaves\nInterleave, duration                     : 42 ms (1.01 video frame)\nInterleave, preload duration             : 500 ms\n","torrent":{"xt":"urn:btih:8d4de2f38093d9496ed5496b972ee82f6504b238","amp;dn":"War+of+the+Arrows+BRRIP+HD+-+%26quot%3BAbhi","amp;tr":["udp%3A%2F%2Ftracker.openbittorrent.com%3A80","udp%3A%2F%2Fopen.demonii.com%3A1337","udp%3A%2F%2Ftracker.coppersurfer.tk%3A6969","udp%3A%2F%2Fexodus.desync.com%3A6969"],"infoHash":"8d4de2f38093d9496ed5496b972ee82f6504b238","infoHashBuffer":{"type":"Buffer","data":[141,77,226,243,128,147,217,73,110,213,73,107,151,46,232,47,101,4,178,56]},"announce":[],"urlList":[]}}